<?xml version="1.0" encoding="iso-8859-1"?>
<!-- Generator: Adobe Illustrator 16.0.0, SVG Export Plug-In . SVG Version: 6.00 Build 0)  -->
<!DOCTYPE svg PUBLIC "-//W3C//DTD SVG 1.1//EN" "http://www.w3.org/Graphics/SVG/1.1/DTD/svg11.dtd">
<svg version="1.1" id="Capa_1" xmlns="http://www.w3.org/2000/svg" xmlns:xlink="http://www.w3.org/1999/xlink" x="0px" y="0px"
	 width="48.162px" height="48.162px" viewBox="0 0 48.162 48.162" style="enable-background:new 0 0 48.162 48.162;"
	 xml:space="preserve">
<g>
	<g id="_x31_72_9_">
		<g>
			<path d="M33.928,19.805c0.229,0,0.457,0.019,0.684,0.034c0.032-0.226,0.057-0.453,0.069-0.682
				c-0.224-4.134-3.166-7.074-7.298-7.297c-2.424-0.13-4.445,1.107-5.742,2.917c-1.295-1.706-3.311-2.785-5.746-2.917
				c-4.123-0.222-7.09,3.5-7.295,7.297c-0.023,0.488,0.008,0.957,0.084,1.411c-0.258-0.037-0.521-0.062-0.789-0.077
				c-4.457-0.24-7.664,3.783-7.885,7.885c-0.227,4.193,3.32,7.279,7.158,7.813v0.073h19.555c-1.613-1.749-2.607-4.078-2.607-6.646
				C24.114,24.197,28.508,19.805,33.928,19.805z"/>
			<path d="M48.162,26.67V20.73h-7.875v2.887h-2.562v4.629h-1.813v-2.824h-7.875v5.939h7.875v-2.184h1.813v4.63h2.562v2.504h7.875
				v-5.939h-7.875v2.504h-1.562V29.18v-0.933v-3.698h1.562v2.122L48.162,26.67L48.162,26.67z M41.287,21.662h5.875v4.077h-5.875
				V21.662z M34.912,30.431h-5.875v-4.076h5.875V30.431z M41.287,31.305h5.875v4.075h-5.875V31.305z"/>
		</g>
	</g>
</g>
<g>
</g>
<g>
</g>
<g>
</g>
<g>
</g>
<g>
</g>
<g>
</g>
<g>
</g>
<g>
</g>
<g>
</g>
<g>
</g>
<g>
</g>
<g>
</g>
<g>
</g>
<g>
</g>
<g>
</g>
</svg>
