<?xml version="1.0" encoding="iso-8859-1"?>
<!-- Generator: Adobe Illustrator 18.1.1, SVG Export Plug-In . SVG Version: 6.00 Build 0)  -->
<svg version="1.1" id="Capa_1" xmlns="http://www.w3.org/2000/svg" xmlns:xlink="http://www.w3.org/1999/xlink" x="0px" y="0px"
	 viewBox="0 0 566.713 566.713" style="enable-background:new 0 0 566.713 566.713;" xml:space="preserve">
<g>
	<g>
		<path style="fill:#010002;" d="M488.07,164.934c3.468,3.468,5.202,7.65,5.202,12.546v371.485c0,4.895-1.734,9.074-5.202,12.545
			c-3.468,3.469-7.647,5.203-12.546,5.203H91.188c-4.896,0-9.078-1.734-12.546-5.203c-3.468-3.471-5.202-7.65-5.202-12.545V177.48
			c0-4.896,1.734-9.078,5.202-12.546s7.65-5.202,12.546-5.202h384.336C480.421,159.732,484.602,161.466,488.07,164.934z
			 M511.938,45.594c-3.468-3.468-7.65-5.202-12.546-5.202H353.124V17.748c0-4.896-1.731-9.078-5.199-12.546
			C344.454,1.734,340.478,0,335.988,0H230.724c-4.488,0-8.466,1.734-11.934,5.202s-5.202,7.65-5.202,12.546v22.644H67.32
			c-4.896,0-9.078,1.734-12.546,5.202c-3.468,3.468-5.202,7.65-5.202,12.546v51.408c0,4.896,1.734,9.078,5.202,12.546
			s7.65,5.202,12.546,5.202h432.072c4.896,0,9.078-1.734,12.546-5.202s5.202-7.65,5.202-12.546V58.14
			C517.14,53.244,515.406,49.062,511.938,45.594z"/>
	</g>
</g>
<g>
</g>
<g>
</g>
<g>
</g>
<g>
</g>
<g>
</g>
<g>
</g>
<g>
</g>
<g>
</g>
<g>
</g>
<g>
</g>
<g>
</g>
<g>
</g>
<g>
</g>
<g>
</g>
<g>
</g>
</svg>
